<svg xmlns="http://www.w3.org/2000/svg" width="32" height="32" viewBox="0 0 32 32" fill="none">
  <rect width="32" height="32" rx="8" fill="#22C55E"/>
  <path d="M16 8C13.0545 8.00364 10.2178 9.19126 8.12976 11.2793C6.04176 13.3673 4.85414 16.2039 4.8505 19.1495C4.84686 22.095 6.02855 24.9338 8.11239 27.0261C10.1962 29.1184 13.0305 30.3115 15.976 30.32C18.9216 30.3285 21.7626 29.1524 23.8584 27.0732C25.9542 24.994 27.1486 22.1616 27.1657 19.2162C27.1828 16.2708 26.0197 13.4262 23.9414 11.3236C21.8631 9.22095 19.0455 8.01214 16.1 8H16ZM16 28C13.6266 28 11.3066 27.1214 9.4132 25.5147C7.51984 23.908 6.14247 21.6544 5.5237 19.1271C4.90494 16.5999 5.07408 13.9362 6.00746 11.5129C6.94085 9.08969 8.59347 7.03429 10.7574 5.65071C12.9213 4.26713 15.4759 3.62839 18.0433 3.82775C20.6108 4.02711 23.0464 5.05524 24.9735 6.77161C26.9007 8.48798 28.2172 10.8031 28.7341 13.3379C29.251 15.8727 28.9419 18.5041 27.8517 20.8455C26.7615 23.1869 24.9442 25.1265 22.6573 26.3701C20.3705 27.6137 17.7346 28.0969 15.15 27.75" stroke="white" stroke-width="2" stroke-linecap="round" stroke-linejoin="round"/>
  <path d="M16 12V20M12 16H20" stroke="white" stroke-width="2" stroke-linecap="round" stroke-linejoin="round"/>
</svg> 